<?xml version="1.0" encoding="UTF-8" standalone="no"?>
<!-- Created with Inkscape (http://www.inkscape.org/) -->

<svg
   width="150"
   height="50"
   viewBox="0 0 150 50"
   version="1.1"
   id="svg5"
   xml:space="preserve"
   xmlns="http://www.w3.org/2000/svg"
   xmlns:svg="http://www.w3.org/2000/svg"><defs
     id="defs2"><rect
       x="162.89883"
       y="764"
       width="934.48157"
       height="222.66191"
       id="rect9338" /><rect
       x="162.89883"
       y="764"
       width="934.48157"
       height="222.66191"
       id="rect10825" /></defs><g
     id="layer1"><g
       id="g2180"
       transform="translate(-7.7405572)"><g
         id="g1884"
         transform="matrix(0.10094075,0,0,0.10094075,10.699274,61.533599)"><g
           aria-label="INVESTMENTS."
           transform="matrix(1.8714856,0,0,1.8714856,-249.89084,-1737.1639)"
           id="g1868"
           style="font-weight:bold;font-size:60px;line-height:1;font-family:'Argentum Sans';-inkscape-font-specification:'Argentum Sans Bold';white-space:pre;shape-inside:url(#rect9338);fill:#000000;fill-opacity:1"><path
             d="m 377.65954,813.63806 h 12.12 v -43.74 h -12.12 z"
             style="font-weight:800;font-stretch:expanded;font-family:Mona-Sans;-inkscape-font-specification:'Mona-Sans Ultra-Bold Expanded';fill:#000000;fill-opacity:1"
             id="path1846" /><path
             d="m 396.55957,813.63806 h 12.24 v -15.36 l -0.42,-12.3 h 0.54 l 19.38,27.66 h 14.4 v -43.74 h -12 v 15.24 l 0.36,12.78 h -0.42 l -19.44,-28.02 h -14.64 z"
             style="font-weight:800;font-stretch:expanded;font-family:Mona-Sans;-inkscape-font-specification:'Mona-Sans Ultra-Bold Expanded';fill:#000000;fill-opacity:1"
             id="path1848" /><path
             d="m 464.47957,813.63806 h 15.6 l 18.48,-43.74 h -13.32 l -11.04,29.46 -1.68,4.74 h -0.42 l -1.74,-4.86 -11.04,-29.34 h -13.32 z"
             style="font-weight:800;font-stretch:expanded;font-family:Mona-Sans;-inkscape-font-specification:'Mona-Sans Ultra-Bold Expanded';fill:#000000;fill-opacity:1"
             id="path1850" /><path
             d="m 501.79955,813.63806 h 37.86 v -9.54 h -25.74 v -8.04 h 22.56 v -8.88 h -22.56 v -7.74 h 25.56 v -9.54 h -37.68 z"
             style="font-weight:800;font-stretch:expanded;font-family:Mona-Sans;-inkscape-font-specification:'Mona-Sans Ultra-Bold Expanded';fill:#000000;fill-opacity:1"
             id="path1852" /><path
             d="m 564.01959,814.23806 c 13.56,0 21.06,-5.22 21.06,-13.86 0,-9.66 -5.82,-12.42 -19.14,-13.92 -7.98,-0.9 -10.02,-1.44 -10.02,-4.62 0,-2.64 2.7,-4.32 7.44,-4.32 4.5,0 7.5,1.5 7.92,5.16 h 12.24 c -0.78,-8.58 -8.22,-13.32 -19.68,-13.32 -12.66,0 -20.34,5.04 -20.34,13.92 0,8.58 6.24,11.64 19.2,13.2 7.44,0.9 9.9,1.26 9.9,4.86 0,2.94 -2.76,4.62 -8.1,4.62 -6.24,0 -9.36,-2.52 -9.48,-6.36 h -12.6 c 0.06,8.58 6.84,14.64 21.6,14.64 z"
             style="font-weight:800;font-stretch:expanded;font-family:Mona-Sans;-inkscape-font-specification:'Mona-Sans Ultra-Bold Expanded';fill:#000000;fill-opacity:1"
             id="path1854" /><path
             d="m 600.37966,813.63806 h 12.06 v -34.14 h 14.16 v -9.6 h -40.08 v 9.6 h 13.86 z"
             style="font-weight:800;font-stretch:expanded;font-family:Mona-Sans;-inkscape-font-specification:'Mona-Sans Ultra-Bold Expanded';fill:#000000;fill-opacity:1"
             id="path1856" /><path
             d="m 630.73968,813.63806 h 11.34 v -15.6 l -0.18,-16.14 h 0.6 l 10.32,31.74 h 10.5 l 10.32,-31.74 h 0.54 l -0.18,16.08 v 15.66 h 11.28 v -43.74 h -18.06 l -8.88,29.04 h -0.42 l -9.12,-29.04 h -18.06 z"
             style="font-weight:800;font-stretch:expanded;font-family:Mona-Sans;-inkscape-font-specification:'Mona-Sans Ultra-Bold Expanded';fill:#000000;fill-opacity:1"
             id="path1858" /><path
             d="m 691.99969,813.63806 h 37.86 v -9.54 h -25.74 v -8.04 h 22.56 v -8.88 h -22.56 v -7.74 h 25.56 v -9.54 h -37.68 z"
             style="font-weight:800;font-stretch:expanded;font-family:Mona-Sans;-inkscape-font-specification:'Mona-Sans Ultra-Bold Expanded';fill:#000000;fill-opacity:1"
             id="path1860" /><path
             d="m 734.83971,813.63806 h 12.24 v -15.36 l -0.42,-12.3 h 0.54 l 19.38,27.66 h 14.4 v -43.74 h -12 v 15.24 l 0.36,12.78 h -0.42 l -19.44,-28.02 h -14.64 z"
             style="font-weight:800;font-stretch:expanded;font-family:Mona-Sans;-inkscape-font-specification:'Mona-Sans Ultra-Bold Expanded';fill:#000000;fill-opacity:1"
             id="path1862" /><path
             d="m 799.0397,813.63806 h 12.06 v -34.14 h 14.16 v -9.6 h -40.08 v 9.6 h 13.86 z"
             style="font-weight:800;font-stretch:expanded;font-family:Mona-Sans;-inkscape-font-specification:'Mona-Sans Ultra-Bold Expanded';fill:#000000;fill-opacity:1"
             id="path1864" /><path
             d="m 848.29976,814.23806 c 13.56,0 21.06,-5.22 21.06,-13.86 0,-9.66 -5.82,-12.42 -19.14,-13.92 -7.98,-0.9 -10.02,-1.44 -10.02,-4.62 0,-2.64 2.7,-4.32 7.44,-4.32 4.5,0 7.5,1.5 7.92,5.16 h 12.24 c -0.78,-8.58 -8.22,-13.32 -19.68,-13.32 -12.66,0 -20.34,5.04 -20.34,13.92 0,8.58 6.24,11.64 19.2,13.2 7.44,0.9 9.9,1.26 9.9,4.86 0,2.94 -2.76,4.62 -8.1,4.62 -6.24,0 -9.36,-2.52 -9.48,-6.36 h -12.6 c 0.06,8.58 6.84,14.64 21.6,14.64 z"
             style="font-weight:800;font-stretch:expanded;font-family:Mona-Sans;-inkscape-font-specification:'Mona-Sans Ultra-Bold Expanded';fill:#000000;fill-opacity:1"
             id="path1866" /></g><g
           aria-label="REVIVE "
           transform="matrix(3.6471372,0,0,3.6471372,-1384.3811,-3318.457)"
           id="g1882"
           style="font-weight:bold;font-size:60px;line-height:1;font-family:'Argentum Sans';-inkscape-font-specification:'Argentum Sans Bold';white-space:pre;shape-inside:url(#rect10825)"><path
             d="m 504.88963,813.63806 h 12.12 v -14.7 h 11.88 c 4.86,0 6.12,2.1 6.12,5.46 v 4.02 c 0,2.46 0.24,4.14 0.72,5.22 h 12.18 c -0.78,-1.74 -0.78,-3.54 -0.78,-5.28 v -5.58 c 0,-5.04 -2.22,-7.74 -6.9,-8.58 v -0.42 c 5.1,-1.26 8.04,-5.52 8.04,-10.68 0,-9.96 -7.68,-13.2 -17.16,-13.2 h -26.22 z m 12.12,-23.34 v -11.28 h 11.7 c 4.32,0 7.26,1.26 7.26,5.4 0,3.48 -1.68,5.88 -7.26,5.88 z"
             style="font-weight:800;font-stretch:expanded;font-family:Mona-Sans;-inkscape-font-specification:'Mona-Sans Ultra-Bold Expanded'"
             id="path1870" /><path
             d="m 552.88958,813.63806 h 37.86 v -9.54 h -25.74 v -8.04 h 22.56 v -8.88 h -22.56 v -7.74 h 25.56 v -9.54 h -37.68 z"
             style="font-weight:800;font-stretch:expanded;font-family:Mona-Sans;-inkscape-font-specification:'Mona-Sans Ultra-Bold Expanded'"
             id="path1872" /><path
             d="m 610.72963,813.63806 h 15.6 l 18.48,-43.74 h -13.32 l -11.04,29.46 -1.68,4.74 h -0.42 l -1.74,-4.86 -11.04,-29.34 h -13.32 z"
             style="font-weight:800;font-stretch:expanded;font-family:Mona-Sans;-inkscape-font-specification:'Mona-Sans Ultra-Bold Expanded'"
             id="path1874" /><path
             d="m 648.0496,813.63806 h 12.12 v -43.74 h -12.12 z"
             style="font-weight:800;font-stretch:expanded;font-family:Mona-Sans;-inkscape-font-specification:'Mona-Sans Ultra-Bold Expanded'"
             id="path1876" /><path
             d="m 681.94964,813.63806 h 15.6 l 18.48,-43.74 h -13.32 l -11.04,29.46 -1.68,4.74 h -0.42 l -1.74,-4.86 -11.04,-29.34 h -13.32 z"
             style="font-weight:800;font-stretch:expanded;font-family:Mona-Sans;-inkscape-font-specification:'Mona-Sans Ultra-Bold Expanded'"
             id="path1878" /><path
             d="m 719.26963,813.63806 h 37.86 v -9.54 h -25.74 v -8.04 h 22.56 v -8.88 h -22.56 v -7.74 h 25.56 v -9.54 h -37.68 z"
             style="font-weight:800;font-stretch:expanded;font-family:Mona-Sans;-inkscape-font-specification:'Mona-Sans Ultra-Bold Expanded'"
             id="path1880" /></g></g><g
         id="g1898"
         transform="matrix(0.05256027,0,0,0.05256027,510.14697,-272.72372)"
         style="stroke:#000000"><path
           style="fill:none;stroke:#000000;stroke-width:25;stroke-linecap:round;stroke-linejoin:round;stroke-dasharray:none;stroke-opacity:1"
           d="m -9192.1878,5458.3393 v -86.1875 l 163.3977,-75.7429 v 161.9304"
           id="path1886" /><path
           style="fill:none;stroke:#000000;stroke-width:25;stroke-linecap:round;stroke-linejoin:round;stroke-dasharray:none;stroke-opacity:1"
           d="m -9028.7901,5497.0097 v 152.6848"
           id="path1888" /><path
           id="path1890"
           style="fill:none;stroke:#000000;stroke-width:25;stroke-linecap:round;stroke-linejoin:round;stroke-dasharray:none;stroke-opacity:1"
           d="m -9096.2416,5626.2682 -47.9731,-37.1302 m 47.9731,37.1302 v 23.4263 m -95.9462,-119.0652 v -33.6196 l 61.9286,21.928 34.0176,12.0451 v 58.1552 h -95.9462 v 60.5565" /><path
           style="fill:none;stroke:#000000;stroke-width:25;stroke-linecap:round;stroke-linejoin:round;stroke-dasharray:none;stroke-opacity:1"
           d="m -9230.858,5530.9828 -52.6309,42.3696 1.5381,459.0883 h 89.763 v -278.7473 h -135.7249 v 278.7473 h -65.3796"
           id="path1892" /><path
           style="fill:none;stroke:#000000;stroke-width:25;stroke-linecap:round;stroke-linejoin:round;stroke-dasharray:none;stroke-opacity:1"
           d="m -9096.2416,6032.4407 v -278.7473 l 106.1218,-65.3286 v 344.0759 h -38.6703 v -172.038 h 135.7253 v 172.038 h 65.3795"
           id="path1894" /><path
           style="fill:none;stroke:#000000;stroke-width:25;stroke-linecap:round;stroke-linejoin:round;stroke-dasharray:none;stroke-opacity:1"
           d="m -8990.1198,5589.138 97.055,60.5565 2e-4,172.0377"
           id="path1896" /></g></g></g></svg>
